<svg width="50" height="36" viewBox="0 0 50 36" fill="none" xmlns="http://www.w3.org/2000/svg">
<path fill-rule="evenodd" clip-rule="evenodd" d="M4.16652 0.173461C1.89402 0.0787734 0 1.89552 0 4.16999V27.2159C0 29.3388 1.65845 31.092 3.77812 31.2098L16.0173 31.8897C17.3047 31.9612 18.5349 32.4456 19.5255 33.2711L22.3598 35.633C23.0111 36.1758 24 35.7127 24 34.8648V4.83666C24 2.69229 22.309 0.929399 20.1665 0.840128L4.16652 0.173461ZM45.8335 0.173461C48.106 0.0787734 50 1.89552 50 4.16999V27.2159C50 29.3388 48.3415 31.092 46.2219 31.2098L33.9827 31.8897C32.6953 31.9612 31.4651 32.4456 30.4745 33.2711L27.6402 35.633C26.9889 36.1758 26 35.7127 26 34.8648V4.83666C26 2.69229 27.691 0.929399 29.8335 0.840128L45.8335 0.173461ZM4.00088 34.4582C4.02388 33.9064 4.48984 33.4777 5.04165 33.5007L17.0416 34.0007C17.5935 34.0237 18.0221 34.4897 17.9991 35.0415C17.9762 35.5933 17.5102 36.022 16.9584 35.999L4.95839 35.499C4.40658 35.476 3.97789 35.0101 4.00088 34.4582ZM45.0416 35.499C45.5935 35.476 46.0221 35.0101 45.9991 34.4582C45.9762 33.9064 45.5102 33.4777 44.9584 33.5007L32.9584 34.0007C32.4066 34.0237 31.9779 34.4897 32.0009 35.0415C32.0239 35.5933 32.4898 36.022 33.0416 35.999L45.0416 35.499ZM7.24382 23.9996C7.09715 23.9996 6.97249 23.9483 6.86982 23.8456C6.76715 23.7429 6.71582 23.6183 6.71582 23.4716V9.14961C6.71582 8.98828 6.76715 8.85628 6.86982 8.75361C6.97249 8.65094 7.09715 8.59961 7.24382 8.59961H13.1398C14.2838 8.59961 15.2812 8.78294 16.1318 9.14961C16.9825 9.50161 17.6425 10.0443 18.1118 10.7776C18.5812 11.4963 18.8158 12.3983 18.8158 13.4836C18.8158 14.5836 18.5812 15.4929 18.1118 16.2116C17.6425 16.9156 16.9825 17.4436 16.1318 17.7956C15.2812 18.1476 14.2838 18.3236 13.1398 18.3236H9.86182V23.4716C9.86182 23.6183 9.81049 23.7429 9.70782 23.8456C9.61982 23.9483 9.49515 23.9996 9.33382 23.9996H7.24382ZM9.81782 15.8816H13.0298C13.8805 15.8816 14.5332 15.6836 14.9878 15.2876C15.4425 14.8769 15.6698 14.2756 15.6698 13.4836C15.6698 12.7503 15.4572 12.1636 15.0318 11.7236C14.6065 11.2689 13.9392 11.0416 13.0298 11.0416H9.81782V15.8816ZM31.8698 23.8676C31.9725 23.9556 32.0972 23.9996 32.2438 23.9996H34.2458C34.4072 23.9996 34.5318 23.9483 34.6198 23.8456C34.7225 23.7429 34.7738 23.6183 34.7738 23.4716V11.3496H41.2638V23.4716C41.2638 23.6183 41.3152 23.7429 41.4178 23.8456C41.5205 23.9483 41.6452 23.9996 41.7918 23.9996H43.7718C43.9332 23.9996 44.0652 23.9483 44.1678 23.8456C44.2705 23.7429 44.3218 23.6183 44.3218 23.4716V9.14961C44.3218 8.98828 44.2705 8.85628 44.1678 8.75361C44.0652 8.65094 43.9332 8.59961 43.7718 8.59961H32.2438C32.0972 8.59961 31.9725 8.65094 31.8698 8.75361C31.7672 8.85628 31.7158 8.98828 31.7158 9.14961V23.4716C31.7158 23.6329 31.7672 23.7649 31.8698 23.8676Z" fill="#2660ED"/>
</svg>
