<svg width="251" height="68" viewBox="0 0 251 68" fill="none" xmlns="http://www.w3.org/2000/svg">
<path d="M84.97 28C84.75 28 84.57 27.93 84.43 27.79C84.29 27.65 84.22 27.47 84.22 27.25V7.75C84.22 7.53 84.29 7.35 84.43 7.21C84.57 7.07 84.75 7 84.97 7H93.16C94.78 7 96.18 7.25 97.36 7.75C98.56 8.25 99.49 9.01 100.15 10.03C100.83 11.03 101.17 12.28 101.17 13.78C101.17 15.3 100.83 16.56 100.15 17.56C99.49 18.54 98.56 19.27 97.36 19.75C96.18 20.23 94.78 20.47 93.16 20.47H89.14V27.25C89.14 27.47 89.07 27.65 88.93 27.79C88.79 27.93 88.61 28 88.39 28H84.97ZM89.05 16.75H93.01C94.03 16.75 94.82 16.5 95.38 16C95.96 15.5 96.25 14.75 96.25 13.75C96.25 12.87 95.99 12.15 95.47 11.59C94.97 11.03 94.15 10.75 93.01 10.75H89.05V16.75ZM112.57 28.3C110.75 28.3 109.18 28 107.86 27.4C106.54 26.8 105.51 25.9 104.77 24.7C104.03 23.48 103.63 21.95 103.57 20.11C103.55 19.25 103.54 18.4 103.54 17.56C103.54 16.7 103.55 15.83 103.57 14.95C103.63 13.15 104.03 11.64 104.77 10.42C105.53 9.18 106.57 8.25 107.89 7.63C109.23 7.01 110.79 6.7 112.57 6.7C114.33 6.7 115.87 7.01 117.19 7.63C118.53 8.25 119.58 9.18 120.34 10.42C121.1 11.64 121.5 13.15 121.54 14.95C121.58 15.83 121.6 16.7 121.6 17.56C121.6 18.4 121.58 19.25 121.54 20.11C121.48 21.95 121.08 23.48 120.34 24.7C119.6 25.9 118.57 26.8 117.25 27.4C115.93 28 114.37 28.3 112.57 28.3ZM112.57 24.43C113.73 24.43 114.68 24.08 115.42 23.38C116.18 22.66 116.58 21.52 116.62 19.96C116.66 19.08 116.68 18.26 116.68 17.5C116.68 16.72 116.66 15.9 116.62 15.04C116.6 14 116.41 13.15 116.05 12.49C115.69 11.83 115.21 11.35 114.61 11.05C114.03 10.73 113.35 10.57 112.57 10.57C111.79 10.57 111.1 10.73 110.5 11.05C109.9 11.35 109.42 11.83 109.06 12.49C108.72 13.15 108.53 14 108.49 15.04C108.47 15.9 108.46 16.72 108.46 17.5C108.46 18.26 108.47 19.08 108.49 19.96C108.55 21.52 108.95 22.66 109.69 23.38C110.43 24.08 111.39 24.43 112.57 24.43ZM126.074 28C125.854 28 125.674 27.93 125.534 27.79C125.394 27.65 125.324 27.47 125.324 27.25V7.75C125.324 7.53 125.394 7.35 125.534 7.21C125.674 7.07 125.854 7 126.074 7H140.114C140.334 7 140.514 7.07 140.654 7.21C140.794 7.35 140.864 7.53 140.864 7.75V10.3C140.864 10.5 140.794 10.67 140.654 10.81C140.514 10.95 140.334 11.02 140.114 11.02H130.094V15.22H134.744C137.064 15.22 138.884 15.79 140.204 16.93C141.544 18.07 142.214 19.61 142.214 21.55C142.214 22.41 142.044 23.23 141.704 24.01C141.384 24.79 140.914 25.48 140.294 26.08C139.674 26.68 138.894 27.15 137.954 27.49C137.034 27.83 135.964 28 134.744 28H126.074ZM130.094 24.49H134.294C134.934 24.49 135.474 24.35 135.914 24.07C136.374 23.79 136.714 23.42 136.934 22.96C137.174 22.5 137.294 22.01 137.294 21.49C137.294 20.69 137.034 20.02 136.514 19.48C136.014 18.94 135.274 18.67 134.294 18.67H130.094V24.49ZM153.263 28.3C151.443 28.3 149.873 28 148.553 27.4C147.233 26.8 146.203 25.9 145.463 24.7C144.723 23.48 144.323 21.95 144.263 20.11C144.243 19.25 144.233 18.4 144.233 17.56C144.233 16.7 144.243 15.83 144.263 14.95C144.323 13.15 144.723 11.64 145.463 10.42C146.223 9.18 147.263 8.25 148.583 7.63C149.923 7.01 151.483 6.7 153.263 6.7C155.023 6.7 156.563 7.01 157.883 7.63C159.223 8.25 160.273 9.18 161.033 10.42C161.793 11.64 162.193 13.15 162.233 14.95C162.273 15.83 162.293 16.7 162.293 17.56C162.293 18.4 162.273 19.25 162.233 20.11C162.173 21.95 161.773 23.48 161.033 24.7C160.293 25.9 159.263 26.8 157.943 27.4C156.623 28 155.063 28.3 153.263 28.3ZM153.263 24.43C154.423 24.43 155.373 24.08 156.113 23.38C156.873 22.66 157.273 21.52 157.313 19.96C157.353 19.08 157.373 18.26 157.373 17.5C157.373 16.72 157.353 15.9 157.313 15.04C157.293 14 157.103 13.15 156.743 12.49C156.383 11.83 155.903 11.35 155.303 11.05C154.723 10.73 154.043 10.57 153.263 10.57C152.483 10.57 151.793 10.73 151.193 11.05C150.593 11.35 150.113 11.83 149.753 12.49C149.413 13.15 149.223 14 149.183 15.04C149.163 15.9 149.153 16.72 149.153 17.5C149.153 18.26 149.163 19.08 149.183 19.96C149.243 21.52 149.643 22.66 150.383 23.38C151.123 24.08 152.083 24.43 153.263 24.43ZM178.017 28C177.817 28 177.647 27.93 177.507 27.79C177.367 27.65 177.297 27.47 177.297 27.25V20.5C176.977 20.78 176.567 21.02 176.067 21.22C175.567 21.4 175.017 21.54 174.417 21.64C173.837 21.72 173.257 21.76 172.677 21.76C170.157 21.76 168.287 21.15 167.067 19.93C165.867 18.71 165.267 16.87 165.267 14.41V7.75C165.267 7.53 165.337 7.35 165.477 7.21C165.617 7.07 165.787 7 165.987 7H169.287C169.507 7 169.687 7.07 169.827 7.21C169.967 7.35 170.037 7.53 170.037 7.75V14.2C170.037 15.28 170.307 16.08 170.847 16.6C171.387 17.12 172.307 17.38 173.607 17.38C173.987 17.38 174.387 17.35 174.807 17.29C175.227 17.21 175.627 17.09 176.007 16.93C176.387 16.77 176.697 16.55 176.937 16.27C177.177 15.99 177.297 15.64 177.297 15.22V7.75C177.297 7.53 177.367 7.35 177.507 7.21C177.647 7.07 177.817 7 178.017 7H181.317C181.537 7 181.717 7.07 181.857 7.21C181.997 7.35 182.067 7.53 182.067 7.75V27.25C182.067 27.47 181.997 27.65 181.857 27.79C181.717 27.93 181.537 28 181.317 28H178.017ZM187.363 28C187.143 28 186.963 27.93 186.823 27.79C186.683 27.65 186.613 27.47 186.613 27.25V7.75C186.613 7.53 186.683 7.35 186.823 7.21C186.963 7.07 187.143 7 187.363 7H190.753C190.973 7 191.153 7.07 191.293 7.21C191.433 7.35 191.503 7.53 191.503 7.75V27.25C191.503 27.47 191.433 27.65 191.293 27.79C191.153 27.93 190.973 28 190.753 28H187.363ZM84.97 60C84.75 60 84.57 59.93 84.43 59.79C84.29 59.65 84.22 59.47 84.22 59.25V39.75C84.22 39.53 84.29 39.35 84.43 39.21C84.57 39.07 84.75 39 84.97 39H101.14C101.36 39 101.54 39.07 101.68 39.21C101.82 39.35 101.89 39.53 101.89 39.75V59.25C101.89 59.47 101.82 59.65 101.68 59.79C101.54 59.93 101.36 60 101.14 60H97.87C97.65 60 97.47 59.93 97.33 59.79C97.19 59.65 97.12 59.47 97.12 59.25V43.26H88.99V59.25C88.99 59.47 88.92 59.65 88.78 59.79C88.64 59.93 88.46 60 88.24 60H84.97ZM107.089 60C106.869 60 106.689 59.93 106.549 59.79C106.409 59.65 106.339 59.47 106.339 59.25V39.75C106.339 39.53 106.409 39.35 106.549 39.21C106.689 39.07 106.869 39 107.089 39H115.279C116.899 39 118.299 39.25 119.479 39.75C120.679 40.25 121.609 41.01 122.269 42.03C122.949 43.03 123.289 44.28 123.289 45.78C123.289 47.3 122.949 48.56 122.269 49.56C121.609 50.54 120.679 51.27 119.479 51.75C118.299 52.23 116.899 52.47 115.279 52.47H111.259V59.25C111.259 59.47 111.189 59.65 111.049 59.79C110.909 59.93 110.729 60 110.509 60H107.089ZM111.169 48.75H115.129C116.149 48.75 116.939 48.5 117.499 48C118.079 47.5 118.369 46.75 118.369 45.75C118.369 44.87 118.109 44.15 117.589 43.59C117.089 43.03 116.269 42.75 115.129 42.75H111.169V48.75ZM134.689 60.3C132.869 60.3 131.299 60 129.979 59.4C128.659 58.8 127.629 57.9 126.889 56.7C126.149 55.48 125.749 53.95 125.689 52.11C125.669 51.25 125.659 50.4 125.659 49.56C125.659 48.7 125.669 47.83 125.689 46.95C125.749 45.15 126.149 43.64 126.889 42.42C127.649 41.18 128.689 40.25 130.009 39.63C131.349 39.01 132.909 38.7 134.689 38.7C136.449 38.7 137.989 39.01 139.309 39.63C140.649 40.25 141.699 41.18 142.459 42.42C143.219 43.64 143.619 45.15 143.659 46.95C143.699 47.83 143.719 48.7 143.719 49.56C143.719 50.4 143.699 51.25 143.659 52.11C143.599 53.95 143.199 55.48 142.459 56.7C141.719 57.9 140.689 58.8 139.369 59.4C138.049 60 136.489 60.3 134.689 60.3ZM134.689 56.43C135.849 56.43 136.799 56.08 137.539 55.38C138.299 54.66 138.699 53.52 138.739 51.96C138.779 51.08 138.799 50.26 138.799 49.5C138.799 48.72 138.779 47.9 138.739 47.04C138.719 46 138.529 45.15 138.169 44.49C137.809 43.83 137.329 43.35 136.729 43.05C136.149 42.73 135.469 42.57 134.689 42.57C133.909 42.57 133.219 42.73 132.619 43.05C132.019 43.35 131.539 43.83 131.179 44.49C130.839 45.15 130.649 46 130.609 47.04C130.589 47.9 130.579 48.72 130.579 49.5C130.579 50.26 130.589 51.08 130.609 51.96C130.669 53.52 131.069 54.66 131.809 55.38C132.549 56.08 133.509 56.43 134.689 56.43ZM148.193 60C147.973 60 147.793 59.93 147.653 59.79C147.513 59.65 147.443 59.47 147.443 59.25V39.75C147.443 39.53 147.513 39.35 147.653 39.21C147.793 39.07 147.973 39 148.193 39H160.763C160.983 39 161.163 39.07 161.303 39.21C161.443 39.35 161.513 39.53 161.513 39.75V42.3C161.513 42.5 161.443 42.67 161.303 42.81C161.163 42.95 160.983 43.02 160.763 43.02H152.213V59.25C152.213 59.47 152.143 59.65 152.003 59.79C151.863 59.93 151.683 60 151.463 60H148.193ZM164.775 60C164.555 60 164.375 59.93 164.235 59.79C164.095 59.65 164.025 59.47 164.025 59.25V39.75C164.025 39.53 164.095 39.35 164.235 39.21C164.375 39.07 164.555 39 164.775 39H172.965C174.585 39 175.985 39.25 177.165 39.75C178.365 40.25 179.295 41.01 179.955 42.03C180.635 43.03 180.975 44.28 180.975 45.78C180.975 47.3 180.635 48.56 179.955 49.56C179.295 50.54 178.365 51.27 177.165 51.75C175.985 52.23 174.585 52.47 172.965 52.47H168.945V59.25C168.945 59.47 168.875 59.65 168.735 59.79C168.595 59.93 168.415 60 168.195 60H164.775ZM168.855 48.75H172.815C173.835 48.75 174.625 48.5 175.185 48C175.765 47.5 176.055 46.75 176.055 45.75C176.055 44.87 175.795 44.15 175.275 43.59C174.775 43.03 173.955 42.75 172.815 42.75H168.855V48.75ZM182.804 60C182.624 60 182.474 59.94 182.354 59.82C182.234 59.68 182.174 59.53 182.174 59.37C182.174 59.27 182.184 59.18 182.204 59.1L189.344 39.81C189.404 39.59 189.524 39.4 189.704 39.24C189.884 39.08 190.134 39 190.454 39H194.294C194.614 39 194.864 39.08 195.044 39.24C195.224 39.4 195.344 39.59 195.404 39.81L202.544 59.1C202.564 59.18 202.574 59.27 202.574 59.37C202.574 59.53 202.514 59.68 202.394 59.82C202.274 59.94 202.124 60 201.944 60H198.824C198.524 60 198.304 59.93 198.164 59.79C198.024 59.65 197.934 59.52 197.894 59.4L196.604 56.04H188.144L186.854 59.4C186.814 59.52 186.724 59.65 186.584 59.79C186.444 59.93 186.224 60 185.924 60H182.804ZM189.254 52.17H195.464L192.374 43.53L189.254 52.17ZM205.908 60C205.708 60 205.528 59.93 205.368 59.79C205.228 59.65 205.158 59.47 205.158 59.25V39.75C205.158 39.53 205.228 39.35 205.368 39.21C205.528 39.07 205.708 39 205.908 39H208.698C208.998 39 209.218 39.08 209.358 39.24C209.518 39.4 209.628 39.52 209.688 39.6L215.208 49.77L220.788 39.6C220.828 39.52 220.918 39.4 221.058 39.24C221.218 39.08 221.448 39 221.748 39H224.538C224.758 39 224.938 39.07 225.078 39.21C225.218 39.35 225.288 39.53 225.288 39.75V59.25C225.288 59.47 225.218 59.65 225.078 59.79C224.938 59.93 224.758 60 224.538 60H221.478C221.278 60 221.108 59.93 220.968 59.79C220.828 59.65 220.758 59.47 220.758 59.25V47.13L216.948 54.27C216.848 54.45 216.718 54.61 216.558 54.75C216.398 54.89 216.188 54.96 215.928 54.96H214.518C214.258 54.96 214.048 54.89 213.888 54.75C213.728 54.61 213.598 54.45 213.498 54.27L209.688 47.13V59.25C209.688 59.47 209.618 59.65 209.478 59.79C209.338 59.93 209.168 60 208.968 60H205.908ZM230.488 60C230.268 60 230.088 59.93 229.948 59.79C229.808 59.63 229.738 59.45 229.738 59.25V39.75C229.738 39.53 229.808 39.35 229.948 39.21C230.108 39.07 230.288 39 230.488 39H233.758C233.978 39 234.158 39.07 234.298 39.21C234.438 39.35 234.508 39.53 234.508 39.75V52.71L243.718 39.54C243.818 39.4 243.938 39.28 244.078 39.18C244.238 39.06 244.438 39 244.678 39H247.618C247.838 39 248.018 39.07 248.158 39.21C248.298 39.35 248.368 39.53 248.368 39.75V59.25C248.368 59.47 248.298 59.65 248.158 59.79C248.018 59.93 247.838 60 247.618 60H244.348C244.148 60 243.968 59.93 243.808 59.79C243.668 59.65 243.598 59.47 243.598 59.25V46.68L234.388 59.46C234.328 59.58 234.228 59.7 234.088 59.82C233.948 59.94 233.738 60 233.458 60H230.488Z" fill="#0B2F65"/>
<path d="M1.5 20C1.5 9.78266 9.78212 1.5 19.9993 1.5H20.0275H20.0558H20.084H20.1122H20.1405H20.1687H20.1969H20.2252H20.2534H20.2817H20.3099H20.3382H20.3665H20.3947H20.423H20.4513H20.4795H20.5078H20.5361H20.5644H20.5926H20.6209H20.6492H20.6775H20.7058H20.7341H20.7624H20.7907H20.819H20.8473H20.8756H20.9039H20.9322H20.9605H20.9889H21.0172H21.0455H21.0738H21.1021H21.1305H21.1588H21.1871H21.2155H21.2438H21.2721H21.3005H21.3288H21.3571H21.3855H21.4138H21.4422H21.4705H21.4989H21.5272H21.5556H21.5839H21.6123H21.6406H21.669H21.6973H21.7257H21.754H21.7824H21.8107H21.8391H21.8675H21.8958H21.9242H21.9526H21.9809H22.0093H22.0376H22.066H22.0944H22.1227H22.1511H22.1795H22.2078H22.2362H22.2646H22.293H22.3213H22.3497H22.3781H22.4064H22.4348H22.4632H22.4915H22.5199H22.5483H22.5766H22.605H22.6334H22.6617H22.6901H22.7185H22.7468H22.7752H22.8036H22.8319H22.8603H22.8887H22.917H22.9454H22.9738H23.0021H23.0305H23.0588H23.0872H23.1156H23.1439H23.1723H23.2006H23.229H23.2573H23.2857H23.314H23.3424H23.3707H23.3991H23.4274H23.4558H23.4841H23.5124H23.5408H23.5691H23.5975H23.6258H23.6541H23.6825H23.7108H23.7391H23.7674H23.7958H23.8241H23.8524H23.8807H23.909H23.9374H23.9657H23.994H24.0223H24.0506H24.0789H24.1072H24.1355H24.1638H24.1921H24.2204H24.2486H24.2769H24.3052H24.3335H24.3618H24.39H24.4183H24.4466H24.4748H24.5031H24.5314H24.5596H24.5879H24.6161H24.6444H24.6726H24.7009H24.7291H24.7573H24.7856H24.8138H24.842H24.8702H24.8985H24.9267H24.9549H24.9831H25.0113H25.0395H25.0677H25.0959H25.1241H25.1523H25.1804H25.2086H25.2368H25.265H25.2931H25.3213H25.3494H25.3776H25.4057H25.4339H25.462H25.4902H25.5183H25.5464H25.5745H25.6027H25.6308H25.6589H25.687H25.7151H25.7432H25.7713H25.7994H25.8274H25.8555H25.8836H25.9117H25.9397H25.9678H25.9958H26.0239H26.0519H26.0799H26.108H26.136H26.164H26.192H26.22H26.248H26.276H26.304H26.332H26.36H26.388H26.416H26.4439H26.4719H26.4998H26.5278H26.5557H26.5837H26.6116H26.6395H26.6674H26.6953H26.7232H26.7511H26.779H26.8069H26.8348H26.8627H26.8905H26.9184H26.9463H26.9741H27.002H27.0298H27.0576H27.0854H27.1133H27.1411H27.1689H27.1967H27.2245H27.2522H27.28H27.3078H27.3355H27.3633H27.391H27.4188H27.4465H27.4742H27.502H27.5297H27.5574H27.5851H27.6128H27.6404H27.6681H27.6958H27.7234H27.7511H27.7787H27.8064H27.834H27.8616H27.8892H27.9168H27.9444H27.972H27.9996H28.0272H28.0548H28.0823H28.1099H28.1374H28.1649H28.1925H28.22H28.2475H28.275H28.3025H28.33H28.3574H28.3849H28.4124H28.4398H28.4672H28.4947H28.5221H28.5495H28.5769H28.6043H28.6317H28.6591H28.6865H28.7138H28.7412H28.7685H28.7958H28.8232H28.8505H28.8778H28.9051H28.9324H28.9597H28.9869H29.0142H29.0414H29.0687H29.0959H29.1231H29.1503H29.1775H29.2047H29.2319H29.2591H29.2862H29.3134H29.3405H29.3677H29.3948H29.4219H29.449H29.4761H29.5032H29.5303H29.5573H29.5844H29.6114H29.6384H29.6655H29.6925H29.7195H29.7465H29.7734H29.8004H29.8274H29.8543H29.8813H29.9082H29.9351H29.962H29.9889H30.0158H30.0426H30.0695H30.0963H30.1232H30.15H30.1768H30.2036H30.2304H30.2572H30.284H30.3107H30.3375H30.3642H30.3909H30.4177H30.4444H30.471H30.4977H30.5244H30.551H30.5777H30.6043H30.6309H30.6575H30.6841H30.7107H30.7373H30.7638H30.7904H30.8169H30.8435H30.87H30.8965H30.9229H30.9494H30.9759H31.0023H31.0288H31.0552H31.0816H31.108H31.1344H31.1608H31.1871H31.2135H31.2398H31.2661H31.2924H31.3187H31.345H31.3713H31.3975H31.4238H31.45H31.4762H31.5024H31.5286H31.5548H31.581H31.6071H31.6333H31.6594H31.6855H31.7116H31.7377H31.7638H31.7898H31.8159H31.8419H31.8679H31.8939H31.9199H31.9459H31.9718H31.9978H32.0237H32.0496H32.0755H32.1014H32.1273H32.1532H32.179H32.2048H32.2307H32.2565H32.2822H32.308H32.3338H32.3595H32.3853H32.411H32.4367H32.4624H32.488H32.5137H32.5394H32.565H32.5906H32.6162H32.6418H32.6674H32.6929H32.7184H32.744H32.7695H32.795H32.8204H32.8459H32.8714H32.8968H32.9222H32.9476H32.973H32.9984H33.0237H33.0491H33.0744H33.0997H33.125H33.1503H33.1755H33.2008H33.226H33.2512H33.2764H33.3016H33.3268H33.3519H33.377H33.4022H33.4273H33.4523H33.4774H33.5025H33.5275H33.5525H33.5775H33.6025H33.6275H33.6524H33.6774H33.7023H33.7272H33.7521H33.7769H33.8018H33.8266H33.8514H33.8762H33.901H33.9258H33.9506H33.9753H34H34.0247H34.0494H34.0742H34.099H34.1238H34.1486H34.1734H34.1982H34.2231H34.2479H34.2728H34.2977H34.3226H34.3476H34.3725H34.3975H34.4225H34.4475H34.4725H34.4975H34.5226H34.5477H34.5727H34.5978H34.623H34.6481H34.6732H34.6984H34.7236H34.7488H34.774H34.7992H34.8245H34.8497H34.875H34.9003H34.9256H34.9509H34.9763H35.0016H35.027H35.0524H35.0778H35.1032H35.1286H35.1541H35.1796H35.205H35.2305H35.256H35.2816H35.3071H35.3326H35.3582H35.3838H35.4094H35.435H35.4606H35.4863H35.512H35.5376H35.5633H35.589H35.6147H35.6405H35.6662H35.692H35.7178H35.7435H35.7693H35.7952H35.821H35.8468H35.8727H35.8986H35.9245H35.9504H35.9763H36.0022H36.0282H36.0541H36.0801H36.1061H36.1321H36.1581H36.1841H36.2102H36.2362H36.2623H36.2884H36.3145H36.3406H36.3667H36.3929H36.419H36.4452H36.4714H36.4976H36.5238H36.55H36.5762H36.6025H36.6287H36.655H36.6813H36.7076H36.7339H36.7602H36.7865H36.8129H36.8392H36.8656H36.892H36.9184H36.9448H36.9712H36.9977H37.0241H37.0506H37.0771H37.1035H37.13H37.1565H37.1831H37.2096H37.2362H37.2627H37.2893H37.3159H37.3425H37.3691H37.3957H37.4223H37.449H37.4756H37.5023H37.529H37.5556H37.5823H37.6091H37.6358H37.6625H37.6893H37.716H37.7428H37.7696H37.7964H37.8232H37.85H37.8768H37.9037H37.9305H37.9574H37.9842H38.0111H38.038H38.0649H38.0918H38.1188H38.1457H38.1726H38.1996H38.2266H38.2535H38.2805H38.3075H38.3345H38.3616H38.3886H38.4156H38.4427H38.4697H38.4968H38.5239H38.551H38.5781H38.6052H38.6323H38.6595H38.6866H38.7138H38.7409H38.7681H38.7953H38.8225H38.8497H38.8769H38.9041H38.9313H38.9586H38.9858H39.0131H39.0403H39.0676H39.0949H39.1222H39.1495H39.1768H39.2042H39.2315H39.2588H39.2862H39.3135H39.3409H39.3683H39.3957H39.4231H39.4505H39.4779H39.5053H39.5327H39.5602H39.5876H39.6151H39.6426H39.67H39.6975H39.725H39.7525H39.78H39.8075H39.8351H39.8626H39.8901H39.9177H39.9452H39.9728H40.0004H40.028H40.0556H40.0832H40.1108H40.1384H40.166H40.1936H40.2213H40.2489H40.2766H40.3042H40.3319H40.3596H40.3872H40.4149H40.4426H40.4703H40.498H40.5258H40.5535H40.5812H40.609H40.6367H40.6645H40.6922H40.72H40.7478H40.7755H40.8033H40.8311H40.8589H40.8867H40.9146H40.9424H40.9702H40.998H41.0259H41.0537H41.0816H41.1095H41.1373H41.1652H41.1931H41.221H41.2489H41.2768H41.3047H41.3326H41.3605H41.3884H41.4163H41.4443H41.4722H41.5002H41.5281H41.5561H41.584H41.612H41.64H41.668H41.696H41.724H41.752H41.78H41.808H41.836H41.864H41.892H41.9201H41.9481H41.9761H42.0042H42.0322H42.0603H42.0883H42.1164H42.1445H42.1726H42.2006H42.2287H42.2568H42.2849H42.313H42.3411H42.3692H42.3973H42.4255H42.4536H42.4817H42.5098H42.538H42.5661H42.5943H42.6224H42.6506H42.6787H42.7069H42.735H42.7632H42.7914H42.8196H42.8477H42.8759H42.9041H42.9323H42.9605H42.9887H43.0169H43.0451H43.0733H43.1015H43.1298H43.158H43.1862H43.2144H43.2427H43.2709H43.2991H43.3274H43.3556H43.3839H43.4121H43.4404H43.4686H43.4969H43.5252H43.5534H43.5817H43.61H43.6382H43.6665H43.6948H43.7231H43.7514H43.7796H43.8079H43.8362H43.8645H43.8928H43.9211H43.9494H43.9777H44.006H44.0343H44.0626H44.091H44.1193H44.1476H44.1759H44.2042H44.2326H44.2609H44.2892H44.3175H44.3459H44.3742H44.4025H44.4309H44.4592H44.4875H44.5159H44.5442H44.5726H44.6009H44.6293H44.6576H44.686H44.7143H44.7427H44.771H44.7994H44.8277H44.8561H44.8844H44.9128H44.9412H44.9695H44.9979H45.0262H45.0546H45.083H45.1113H45.1397H45.1681H45.1964H45.2248H45.2532H45.2815H45.3099H45.3383H45.3666H45.395H45.4234H45.4517H45.4801H45.5085H45.5368H45.5652H45.5936H45.6219H45.6503H45.6787H45.707H45.7354H45.7638H45.7922H45.8205H45.8489H45.8773H45.9056H45.934H45.9623H45.9907H46.0191H46.0474H46.0758H46.1042H46.1325H46.1609H46.1893H46.2176H46.246H46.2743H46.3027H46.331H46.3594H46.3877H46.4161H46.4444H46.4728H46.5011H46.5295H46.5578H46.5862H46.6145H46.6429H46.6712H46.6995H46.7279H46.7562H46.7845H46.8129H46.8412H46.8695H46.8979H46.9262H46.9545H46.9828H47.0111H47.0395H47.0678H47.0961H47.1244H47.1527H47.181H47.2093H47.2376H47.2659H47.2942H47.3225H47.3508H47.3791H47.4074H47.4356H47.4639H47.4922H47.5205H47.5487H47.577H47.6053H47.6335H47.6618H47.6901H47.7183H47.7466H47.7748H47.8031H47.8313H47.8595H47.8878H47.916H47.9442H47.9725H48.0007C58.2179 1.5 66.5 9.78267 66.5 20V48C66.5 58.2173 58.2173 66.5 48 66.5H20C9.78273 66.5 1.5 58.2173 1.5 48V20Z" fill="white" stroke="url(#paint0_linear_25866_234579)" stroke-width="3"/>
<path fill-rule="evenodd" clip-rule="evenodd" d="M41 16.3875C41 15.7049 41.6687 15.223 42.3162 15.4388L42.346 15.4487C42.448 15.4827 42.5548 15.5001 42.6623 15.5001H47.3377C47.4452 15.5001 47.552 15.4827 47.654 15.4487L47.6838 15.4388C48.3313 15.223 49 15.7049 49 16.3875V20.0001H41V16.3875ZM41 22.0001V44.0001H49V22.0001H41ZM41 46.0001H49V49.6126C49 50.2952 48.3313 50.7772 47.6838 50.5613L47.654 50.5514C47.552 50.5174 47.4452 50.5001 47.3377 50.5001H42.6623C42.5548 50.5001 42.448 50.5174 42.346 50.5514L42.3162 50.5613C41.6687 50.7772 41 50.2952 41 49.6126V46.0001Z" fill="url(#paint1_linear_25866_234579)"/>
<path fill-rule="evenodd" clip-rule="evenodd" d="M31 20.1183C31 19.522 31.5185 19.0582 32.1111 19.1245L32.8636 19.2086L37.3912 19.1864L37.8851 19.1293C38.4789 19.0605 39 19.5248 39 20.1226V24.0002H31V20.1183ZM31 26.0002H39V44.0002H31V26.0002ZM31 46.0002V49.5523C31 50.2096 31.6234 50.6882 32.2585 50.5183L32.3457 50.495C32.4248 50.4738 32.5063 50.4624 32.5882 50.4611L37.3285 50.3857C37.4349 50.3841 37.5409 50.3994 37.6425 50.4311L37.7019 50.4496C38.3458 50.6507 39 50.1696 39 49.4951V46.0002H31Z" fill="url(#paint2_linear_25866_234579)"/>
<path fill-rule="evenodd" clip-rule="evenodd" d="M26.3275 24.8597C25.7999 24.4326 25.0074 24.6838 24.8223 25.337L20.0586 42.1445L27.2996 44.0848L32.066 27.2676C32.2461 26.6323 31.7694 26.0007 31.109 25.9998C31.0368 25.9997 30.9648 25.9918 30.8943 25.9761L26.7175 25.0479C26.5747 25.0162 26.4412 24.9518 26.3275 24.8597ZM26.7541 46.0092L19.5131 44.0689L18.2532 48.5142C18.1217 48.9783 18.4436 49.4478 18.9238 49.4925C18.9747 49.4973 19.025 49.5071 19.074 49.5218L24.0004 50.9997L24.1965 51.0726C24.7436 51.2763 25.3481 50.9698 25.5073 50.4081L26.7541 46.0092Z" fill="url(#paint3_linear_25866_234579)"/>
<defs>
<linearGradient id="paint0_linear_25866_234579" x1="34" y1="0" x2="34" y2="68" gradientUnits="userSpaceOnUse">
<stop stop-color="#1FACF9"/>
<stop offset="1" stop-color="#275DED"/>
</linearGradient>
<linearGradient id="paint1_linear_25866_234579" x1="46.4668" y1="10.6626" x2="24.7241" y2="37.239" gradientUnits="userSpaceOnUse">
<stop stop-color="#1DB8FB"/>
<stop offset="1" stop-color="#2948EA"/>
</linearGradient>
<linearGradient id="paint2_linear_25866_234579" x1="36.4668" y1="17.0406" x2="19.1202" y2="42.334" gradientUnits="userSpaceOnUse">
<stop stop-color="#1DB8FB"/>
<stop offset="1" stop-color="#2948EA"/>
</linearGradient>
<linearGradient id="paint3_linear_25866_234579" x1="30.5846" y1="23.7894" x2="11.2483" y2="41.7481" gradientUnits="userSpaceOnUse">
<stop stop-color="#1DB8FB"/>
<stop offset="1" stop-color="#2948EA"/>
</linearGradient>
</defs>
</svg>
